<?xml version="1.0" standalone="no"?>
<!DOCTYPE svg PUBLIC "-//W3C//DTD SVG 20010904//EN"
 "http://www.w3.org/TR/2001/REC-SVG-20010904/DTD/svg10.dtd">
<svg version="1.0" xmlns="http://www.w3.org/2000/svg"
 width="676.000000pt" height="676.000000pt" viewBox="0 0 676.000000 676.000000"
 preserveAspectRatio="xMidYMid meet">
<metadata>
Created by potrace 1.14, written by Peter Selinger 2001-2017
</metadata>
<g transform="translate(0.000000,676.000000) scale(0.100000,-0.100000)"
fill="#000000" stroke="none">
<path d="M367 4936 c-15 -7 -37 -27 -47 -44 -19 -31 -20 -63 -21 -1247 -1
-1404 -1 -1231 4 -1276 6 -49 32 -85 69 -98 18 -6 107 -11 205 -11 198 0 231
8 255 63 10 26 13 203 13 940 0 499 3 907 6 907 3 0 6 -6 7 -12 0 -7 12 -49
26 -93 14 -44 43 -141 66 -215 22 -74 45 -144 50 -155 5 -11 12 -36 16 -55 3
-19 9 -39 13 -45 3 -5 6 -12 7 -15 2 -14 26 -97 31 -110 4 -8 7 -17 8 -20 0
-3 4 -14 7 -25 4 -11 23 -74 43 -140 59 -193 101 -329 155 -505 29 -91 58
-185 65 -210 7 -25 22 -75 33 -111 32 -106 64 -158 114 -185 21 -11 72 -14
217 -14 104 0 201 4 214 9 41 16 83 67 105 128 20 57 90 278 97 311 8 31 127
417 135 437 5 11 20 58 33 105 14 47 42 137 61 200 20 63 39 126 42 139 3 14
7 28 10 33 3 4 7 16 9 25 2 10 18 63 35 118 17 55 52 168 77 250 25 83 46 151
48 153 2 2 3 -403 3 -900 0 -935 0 -941 40 -979 28 -25 59 -29 240 -30 138 -1
176 2 204 15 65 31 66 36 67 492 0 225 0 447 1 495 l0 85 93 -2 c111 -2 156
-9 222 -37 89 -36 248 -153 315 -231 37 -43 101 -136 93 -136 -3 0 1 -8 9 -17
13 -16 81 -126 128 -208 84 -147 227 -375 248 -397 l26 -28 -339 0 c-231 0
-349 -4 -371 -12 -57 -20 -65 -49 -66 -229 -1 -145 1 -162 19 -187 40 -54 16
-53 1107 -50 1095 3 1038 0 1068 57 18 34 18 328 0 363 -31 57 -36 58 -444 58
l-373 0 0 815 c0 448 2 815 5 815 5 -1 63 -90 65 -100 0 -3 22 -37 48 -77 26
-39 47 -74 47 -78 0 -3 5 -11 10 -18 15 -18 54 -78 86 -133 15 -27 31 -51 34
-54 4 -3 21 -30 38 -60 18 -30 53 -86 78 -125 24 -38 52 -85 61 -102 9 -18 20
-33 25 -33 4 0 8 -4 8 -10 0 -9 134 -227 206 -336 19 -28 34 -56 34 -62 0 -7
5 -12 10 -12 6 0 10 -5 10 -10 0 -6 5 -16 10 -23 6 -7 50 -75 97 -152 107
-176 140 -217 200 -246 44 -21 63 -24 234 -27 214 -4 245 2 272 61 16 33 17
131 15 1294 -3 1387 2 1287 -66 1319 -46 22 -395 17 -429 -6 -13 -8 -23 -20
-23 -27 0 -6 -6 -13 -12 -16 -10 -3 -13 -172 -13 -800 0 -439 -3 -797 -6 -797
-3 0 -52 75 -109 168 -57 92 -110 178 -119 191 -9 13 -19 29 -23 35 -39 58
-148 239 -148 245 0 5 -4 11 -8 13 -5 2 -35 47 -68 100 -32 54 -70 116 -84
137 -14 22 -47 76 -75 121 -27 44 -58 93 -68 108 -9 15 -20 35 -23 45 -4 9 -9
17 -13 17 -4 0 -20 25 -36 55 -17 30 -33 55 -37 55 -5 0 -8 5 -8 10 0 6 -18
38 -40 71 -22 33 -40 62 -40 64 0 10 -87 133 -107 153 -14 12 -43 32 -66 45
-40 21 -54 22 -252 22 -194 0 -212 -1 -237 -20 -15 -11 -32 -35 -38 -52 -7
-18 -12 -33 -14 -33 -1 0 -29 9 -61 21 -64 22 -201 54 -275 64 -25 3 -61 8
-80 12 -19 3 -353 8 -742 10 -793 5 -755 8 -803 -67 -21 -33 -83 -219 -200
-605 -20 -66 -48 -155 -61 -197 -13 -43 -35 -113 -48 -155 -57 -185 -98 -319
-100 -328 -3 -16 -26 -88 -36 -110 -7 -18 -75 -238 -85 -275 -2 -8 -15 -51
-28 -95 -25 -83 -54 -227 -56 -278 -1 -10 -6 -15 -12 -12 -5 4 -9 17 -8 28 0
12 0 24 -1 27 -1 3 -3 14 -4 25 -3 21 -17 111 -22 132 -1 7 -9 34 -17 60 -34
105 -89 286 -91 297 -2 9 -76 246 -109 346 -6 19 -12 37 -12 40 -6 25 -41 136
-56 178 -10 28 -18 53 -17 55 1 2 -46 157 -98 322 -20 61 -38 120 -40 133 -3
13 -11 40 -18 60 -8 20 -31 93 -52 162 -53 177 -76 220 -136 247 -38 17 -622
16 -661 -1z m3503 -470 c125 -26 201 -65 238 -124 89 -137 46 -348 -88 -433
-48 -31 -146 -63 -230 -75 -19 -3 -51 -8 -70 -10 -19 -3 -160 -8 -312 -11
-251 -5 -278 -3 -279 11 0 9 0 144 0 301 0 157 0 303 0 326 l1 41 328 -4 c258
-4 345 -8 412 -22z m432 -1069 c2 -107 0 -207 -3 -223 -4 -16 -7 -21 -8 -11 0
9 -5 17 -9 17 -5 0 -26 25 -47 56 -55 79 -147 159 -232 200 -75 36 -85 43 -55
42 38 -2 279 74 322 102 8 5 18 10 22 10 4 0 8 -87 10 -193z"/>
</g>
</svg>
